<?xml version="1.0" standalone="no"?>
<!DOCTYPE svg PUBLIC "-//W3C//DTD SVG 20010904//EN"
 "http://www.w3.org/TR/2001/REC-SVG-20010904/DTD/svg10.dtd">
<svg version="1.0" xmlns="http://www.w3.org/2000/svg"
 width="512.000000pt" height="512.000000pt" viewBox="0 0 512.000000 512.000000"
 preserveAspectRatio="xMidYMid meet">
<metadata>
Created by potrace 1.16, written by Peter Selinger 2001-2019
</metadata>
<g transform="translate(0.000000,512.000000) scale(0.100000,-0.100000)"
fill="#000000" stroke="none">
<path d="M350 4838 c-50 -26 -90 -89 -90 -143 0 -41 38 -114 73 -139 26 -19
47 -21 225 -26 173 -5 203 -8 242 -26 54 -26 113 -86 135 -137 8 -20 78 -471
155 -1010 77 -534 147 -1001 155 -1036 45 -181 134 -341 265 -472 137 -139
285 -224 478 -277 l97 -27 810 0 810 0 100 28 c353 97 626 357 723 692 38 128
242 1283 242 1365 -1 257 -162 478 -410 563 l-65 22 -1310 3 -1310 2 -45 -22
c-50 -26 -90 -89 -90 -143 0 -41 38 -114 73 -139 28 -21 36 -21 1330 -26 1174
-5 1306 -7 1338 -21 93 -43 159 -140 159 -237 0 -72 -206 -1200 -235 -1288
-70 -209 -232 -367 -453 -443 l-77 -26 -739 -3 c-792 -3 -817 -2 -949 48 -128
48 -270 169 -345 293 -69 115 -75 143 -222 1177 -77 536 -146 1002 -155 1035
-42 156 -156 295 -299 365 -114 57 -188 70 -396 70 -163 0 -179 -2 -220 -22z"/>
<path d="M1945 1413 c-103 -36 -169 -79 -244 -158 -292 -313 -162 -824 243
-960 314 -105 652 65 751 377 30 94 34 239 10 332 -48 185 -184 334 -370 406
-48 19 -85 24 -185 27 -116 3 -131 2 -205 -24z m321 -338 c193 -113 152 -409
-64 -471 -189 -55 -373 129 -318 318 47 164 235 239 382 153z"/>
<path d="M3487 1429 c-185 -43 -344 -184 -414 -367 -31 -82 -43 -250 -23 -341
42 -194 205 -371 398 -431 275 -86 578 41 702 293 73 149 87 299 40 449 -58
186 -222 343 -410 393 -61 16 -232 18 -293 4z m249 -343 c162 -76 200 -290 73
-414 -108 -107 -257 -106 -363 1 -58 58 -76 104 -76 188 1 183 197 304 366
225z"/>
</g>
</svg>
