<svg xmlns="http://www.w3.org/2000/svg" width="728" height="722" viewBox="0 0 728 722" version="1.1">
	<path d="M 322.440 93.451 C 320.277 96.753, 321.228 99.151, 326.568 103.851 C 331.858 108.508, 334.156 109.279, 336.935 107.333 C 340.494 104.840, 339.497 101.655, 333.419 96.100 C 327.200 90.416, 324.807 89.839, 322.440 93.451 M 359.257 92.250 C 356.113 96.228, 345.055 119.452, 344.480 123.285 C 343.173 131.999, 347.520 141.197, 354.684 144.878 C 357.752 146.454, 367.573 146.276, 370.800 144.585 C 374.485 142.654, 379.651 137.101, 380.939 133.685 C 382.365 129.901, 382.207 122.325, 380.608 117.848 C 379.890 115.839, 377.499 111.339, 375.295 107.848 C 373.090 104.357, 370.089 99.138, 368.626 96.250 C 366.351 91.760, 365.552 91, 363.106 91 C 361.532 91, 359.800 91.563, 359.257 92.250 M 393.362 96.793 C 387.729 101.953, 386.816 103.616, 388.170 106.250 C 389.872 109.558, 394.357 108.390, 399.886 103.199 C 404.972 98.424, 406.112 95.512, 403.800 93.200 C 401.596 90.996, 398.544 92.046, 393.362 96.793 M 358.750 114.198 C 354.394 122.088, 353.616 125.305, 355.028 129.585 C 356.281 133.381, 360.275 137, 363.212 137 C 364.280 137, 366.469 135.685, 368.077 134.077 C 372.473 129.681, 372.146 124.430, 366.922 115.489 C 364.678 111.650, 362.705 108.372, 362.537 108.203 C 362.368 108.035, 360.664 110.732, 358.750 114.198 M 315.223 120.557 C 312.370 122.555, 312.200 127.502, 314.934 128.965 C 318.280 130.755, 327.464 130.249, 329.345 128.171 C 331.605 125.674, 331.423 123.746, 328.686 121.174 C 325.876 118.535, 318.586 118.201, 315.223 120.557 M 398.166 120.596 C 396.459 121.792, 395.964 122.982, 396.194 125.346 C 396.492 128.417, 396.643 128.508, 401.947 128.809 C 404.942 128.979, 408.417 128.861, 409.668 128.547 C 412.878 127.741, 414.496 124.384, 413.124 121.374 C 412.167 119.273, 411.377 119, 406.244 119 C 402.553 119, 399.617 119.580, 398.166 120.596 M 323.557 144.047 C 318.608 146.516, 315 149.859, 315 151.974 C 315 154.135, 316.965 156, 319.240 156 C 321.367 156, 328.685 152.483, 331.250 150.229 C 334.379 147.478, 332.891 141.941, 329.050 142.040 C 328.197 142.062, 325.726 142.965, 323.557 144.047 M 395.073 144.635 C 392.486 147.923, 392.494 148.188, 395.250 150.709 C 398.616 153.787, 403.519 156, 406.972 156 C 409.302 156, 410.326 155.378, 411.217 153.422 C 412.789 149.974, 411.562 148.154, 405.427 144.831 C 399.143 141.428, 397.618 141.399, 395.073 144.635 M 344.838 154.672 C 343.039 156.588, 342.733 158.564, 342.253 171.404 L 341.708 185.964 338.604 186.429 C 336.897 186.684, 331.975 187.140, 327.667 187.441 C 294.775 189.740, 248.321 202.601, 223.500 216.279 C 207.935 224.857, 200.254 231.696, 195.117 241.551 C 190.636 250.148, 191.417 265.056, 197.001 277.501 C 199.577 283.243, 200.510 284.336, 204.229 285.964 C 210.310 288.628, 216.885 289.375, 222.071 287.994 C 228.626 286.247, 235.015 279.251, 237.618 270.969 C 239.989 263.424, 243.854 260, 250 260 C 256.218 260, 260.149 263.484, 262.639 271.202 C 266.671 283.700, 270.595 288.535, 279.163 291.558 C 284.973 293.607, 289.738 293.335, 295.566 290.621 C 302.601 287.346, 307.880 280.927, 310.971 271.892 C 313.314 265.044, 313.831 264.330, 318 262.188 C 326.199 257.974, 335.001 261.271, 336.991 269.300 C 340.279 282.570, 343.400 287.549, 350.660 291.106 C 357.584 294.498, 367.692 294.451, 374.414 290.996 C 381.100 287.559, 384.905 282.451, 388.022 272.729 C 391.229 262.729, 394.285 260, 402.280 260 C 410.153 260, 413.518 262.665, 415.948 270.825 C 419.851 283.931, 425.623 289.978, 436.384 292.235 C 441.096 293.223, 442.738 293.133, 447.537 291.620 C 457.246 288.559, 462.865 282.037, 466.412 269.712 C 468.580 262.180, 472.068 259.709, 479.735 260.275 C 486.302 260.760, 488.469 262.662, 490.527 269.742 C 492.692 277.187, 496.186 282.433, 501.183 285.740 C 504.890 288.193, 506.271 288.500, 513.604 288.500 C 524.067 288.500, 526.135 287.125, 531.433 276.649 C 534.834 269.922, 535.422 267.766, 535.787 260.686 C 536.288 250.954, 533.816 242.240, 528.504 235.009 C 511.492 211.847, 453.119 191.262, 390.750 186.430 L 383 185.829 383 171.525 C 383 151.611, 383.985 152.549, 363.045 152.521 C 347.730 152.501, 346.772 152.614, 344.838 154.672 M 353.703 164.631 C 353.316 165.017, 353 176.476, 353 190.095 C 353 217.400, 352.988 217.344, 359.305 218.529 C 361.087 218.864, 364.560 218.994, 367.023 218.819 L 371.500 218.500 371.500 191.500 L 371.500 164.500 362.953 164.214 C 358.252 164.057, 354.089 164.244, 353.703 164.631 M 321.956 199.068 C 302.622 201.121, 271.043 208.314, 252.730 214.835 C 234.431 221.351, 215.336 231.575, 209.897 237.770 C 204.236 244.217, 202.676 249.181, 203.234 258.967 C 203.974 271.940, 207.778 277.934, 215.300 277.978 C 222.510 278.020, 227.198 273.925, 228.559 266.396 C 229.972 258.578, 233.969 253.903, 241.722 251.003 C 251.184 247.463, 258.333 248.748, 265.508 255.279 C 269.557 258.964, 270.394 260.452, 272.102 267 C 273.626 272.846, 274.812 275.210, 277.480 277.719 C 286.350 286.060, 296.864 281.652, 300.660 268 C 303.903 256.335, 312.588 250.028, 325.434 250.010 C 337.704 249.992, 345.632 256.093, 347.969 267.348 C 350.014 277.202, 355.184 282, 363.753 282 C 370.502 282, 374.066 278.720, 377.156 269.665 C 380.917 258.645, 384.060 254.310, 390.323 251.501 C 397.985 248.064, 402.953 247.554, 409.691 249.513 C 412.862 250.434, 416.702 252.075, 418.224 253.160 C 421.739 255.662, 425.573 262.330, 426.471 267.500 C 427.651 274.296, 429.852 277.750, 434.409 279.956 C 444.890 285.030, 452.440 279.898, 456.442 264.980 C 458.996 255.457, 466.423 249.953, 477.752 249.189 C 483.029 248.833, 484.857 249.184, 489.477 251.445 C 495.953 254.613, 498.144 257.418, 500.460 265.500 C 502.430 272.377, 504.168 274.712, 508.758 276.655 C 517.432 280.326, 524 273.456, 524 260.714 C 524 248.585, 519.531 239.405, 510.252 232.472 C 499.179 224.198, 476.142 214.706, 450 207.645 C 436.567 204.017, 406.453 199.015, 393.750 198.303 L 383 197.700 383 209.715 C 383 220.532, 382.783 222.006, 380.829 224.491 C 374.073 233.079, 354.039 233.306, 346.317 224.882 C 342.883 221.136, 342 217.568, 342 207.435 L 342 198 335.750 198.133 C 332.313 198.206, 326.105 198.627, 321.956 199.068 M 196.299 297.663 C 195.948 298.578, 195.624 317.591, 195.580 339.913 C 195.520 370.413, 195.807 381.036, 196.735 382.656 C 197.414 383.842, 199.889 385.885, 202.235 387.197 L 206.500 389.582 206.202 363.050 C 206.038 348.458, 206.167 335.472, 206.487 334.194 L 207.071 331.870 363.459 332.185 L 519.847 332.500 520.355 335.030 C 520.634 336.421, 520.905 346.965, 520.958 358.462 C 521.010 369.959, 521.315 380.408, 521.635 381.683 C 522.129 383.650, 522.857 384, 526.456 384 L 530.694 384 531.343 372.750 C 532.181 358.195, 532.188 318.088, 531.352 310.098 L 530.705 303.902 526.102 304.201 L 521.500 304.500 521.210 312.750 C 521.011 318.380, 520.535 320.998, 519.710 320.995 C 519.044 320.993, 448.300 321.021, 362.500 321.059 L 206.500 321.127 205.889 308.814 C 205.553 302.041, 205.216 296.387, 205.139 296.250 C 205.063 296.113, 203.186 296, 200.969 296 C 198.132 296, 196.748 296.493, 196.299 297.663 M 109.541 317.872 C 109.168 319.047, 107.656 320.663, 106.181 321.464 C 104.707 322.265, 104.051 322.938, 104.724 322.960 C 105.398 322.982, 106.663 324.382, 107.537 326.071 C 108.735 328.388, 109.439 328.881, 110.404 328.079 C 111.108 327.495, 111.903 327.237, 112.171 327.505 C 112.439 327.773, 113.634 326.954, 114.826 325.685 L 116.993 323.379 114.496 319.995 C 113.123 318.134, 111.993 317.036, 111.985 317.556 C 111.976 318.075, 111.575 317.878, 111.094 317.118 C 110.407 316.032, 110.073 316.194, 109.541 317.872 M 154.138 319.353 C 151.519 322.141, 151.429 324.173, 153.829 326.345 C 156.405 328.677, 158.505 328.404, 160.415 325.490 C 162.259 322.675, 161.371 319.804, 158.115 318.062 C 156.690 317.299, 155.795 317.590, 154.138 319.353 M 564.052 319.445 C 561.343 322.328, 561.775 325.789, 565.100 327.844 C 567.063 329.058, 567.571 328.890, 570.345 326.116 L 573.417 323.045 570.521 320.022 C 568.929 318.360, 567.338 317, 566.987 317 C 566.636 317, 565.315 318.100, 564.052 319.445 M 383.861 379.876 C 377.790 381.166, 369.144 386.120, 364.867 390.761 C 348.969 408.008, 352.052 434.486, 371.500 447.725 C 373.150 448.848, 381.288 453.184, 389.584 457.361 C 407.364 466.313, 413.708 471.909, 416.418 481.035 C 420.913 496.171, 414.614 513.124, 402.159 519.410 C 390.854 525.115, 381.767 524.964, 371.141 518.896 C 357.542 511.129, 355.927 493.717, 368.244 487.677 C 372.614 485.534, 374.812 486.018, 379.535 490.165 L 382.938 493.153 385.469 490.622 C 392.022 484.069, 384.595 476, 372.010 476 C 364.571 476, 359.962 478.148, 354.361 484.224 C 348.890 490.160, 346.563 496.474, 347.281 503.433 C 349.242 522.434, 367.422 536.043, 389.161 534.785 C 399.765 534.171, 411.681 528.459, 418.480 520.732 C 428.067 509.836, 432.533 495.696, 430.159 483.758 C 426.797 466.855, 418.826 458.163, 396.274 446.806 C 376.031 436.613, 369.145 430.013, 367.406 419.138 C 364.985 403.995, 377.153 390, 392.740 390 C 400.334 390, 408.878 395.302, 411.623 401.718 C 416.167 412.337, 409.095 423.321, 401.441 417.532 C 398.538 415.336, 394.275 415.618, 392.950 418.093 C 391.136 421.483, 392.651 424.711, 397.348 427.464 C 409.699 434.702, 424.324 425.866, 425.685 410.343 C 427.144 393.715, 413.985 380.320, 395.351 379.464 C 391.033 379.266, 385.863 379.451, 383.861 379.876 M 138 392.732 C 128.578 393.691, 117.457 398.902, 109.700 405.991 C 95.083 419.350, 85.473 442.357, 83.168 469.512 C 79.620 511.315, 93.487 546.123, 119.392 560.436 C 127.428 564.876, 134.665 566.356, 145.741 565.827 C 153.339 565.463, 155.773 564.894, 161.249 562.198 C 169.812 557.983, 176.242 551.156, 175.810 546.738 C 175.595 544.532, 174.692 543.111, 172.855 542.085 C 170.290 540.652, 170.042 540.761, 164.640 545.698 C 157.991 551.775, 152.153 554, 142.859 554 C 121.064 554, 103.723 535.829, 97.469 506.438 C 95.148 495.530, 95.158 470.928, 97.488 457.500 C 101.756 432.909, 111.730 415.768, 126.400 407.809 C 131.888 404.832, 133.319 404.500, 140.664 404.500 C 148.145 404.500, 149.190 404.755, 153.164 407.544 C 163.303 414.663, 165.225 428.620, 157.133 436.373 C 150.755 442.483, 142.406 439.966, 141.806 431.753 C 141.566 428.467, 140.946 427.254, 138.931 426.128 C 133.198 422.925, 128.229 427.476, 129.466 434.797 C 133.261 457.262, 165.038 455.642, 172.973 432.579 C 175.819 424.308, 175.593 418.738, 172.118 411.500 C 165.925 398.602, 152.561 391.250, 138 392.732 M 445 395.612 C 442.525 396.966, 439.155 399.412, 437.511 401.046 C 433.993 404.542, 434.591 406.452, 440.075 409.243 L 443.500 410.986 444 424.243 C 444.275 431.534, 444.349 451.571, 444.164 468.769 L 443.828 500.037 440.914 501.544 C 437.242 503.444, 437.083 506.790, 440.514 510.013 C 442.398 511.783, 444.487 512.480, 448.856 512.796 C 454.257 513.187, 454.842 513.016, 456.842 510.474 C 459.372 507.257, 459.556 505.118, 457.532 502.441 C 456.343 500.869, 456.062 496.224, 456.054 478 C 456.042 451.478, 456.638 449.061, 464.175 445.063 C 469.192 442.402, 472.015 442.651, 476.459 446.146 C 481.646 450.226, 482 452.528, 482.004 482.218 C 482.007 507.496, 482.151 509.735, 483.956 512.696 C 486.587 517.011, 489.994 519.066, 494.838 519.259 C 499.440 519.443, 503.009 516.961, 502.985 513.595 C 502.964 510.735, 502.040 509.556, 498.331 507.656 L 495.163 506.033 494.831 477.766 L 494.500 449.500 491.396 444 C 484.610 431.975, 472.564 428.983, 457.461 435.573 C 456.761 435.878, 456.434 429.625, 456.461 416.431 C 456.500 397.024, 456.477 396.817, 454.139 394.918 C 451.194 392.525, 450.550 392.574, 445 395.612 M 232.250 402.573 C 226.868 405.624, 226 406.513, 226 408.974 C 226 411.114, 227.005 412.628, 230 415 L 234 418.168 234 464.216 C 234 508.858, 233.938 510.365, 231.955 513.573 C 230.227 516.368, 230.106 517.198, 231.177 518.912 C 234.242 523.820, 243.236 524.057, 246.957 519.328 C 249.376 516.253, 249.534 514.088, 247.532 511.441 C 246.443 510.001, 246.055 506.518, 246.032 497.946 L 246 486.392 249.394 483.102 C 255.054 477.617, 255.338 477.890, 264.857 498 C 270.285 509.469, 274.215 514.256, 279.682 516.060 C 287.361 518.594, 297 514.933, 297 509.481 C 297 505.952, 293.917 504, 288.346 504 C 281.883 504, 280.921 502.914, 273.098 486.796 C 269.706 479.808, 265.822 473.218, 264.466 472.152 C 263.110 471.085, 262 469.911, 262 469.542 C 262 469.174, 265.171 464.400, 269.048 458.933 C 273.490 452.667, 278.111 447.471, 281.548 444.876 C 287.579 440.322, 288.334 437.920, 284.517 435.419 C 282.378 434.018, 281.333 433.960, 276.982 435.004 C 273.925 435.738, 271.350 437.062, 270.461 438.358 C 269.653 439.536, 265.882 445.225, 262.081 451 C 256.242 459.869, 247.248 470.505, 246.898 468.953 C 246.842 468.704, 246.700 453.404, 246.582 434.953 C 246.465 416.503, 246.035 400.865, 245.626 400.203 C 244.252 397.981, 238.580 398.986, 232.250 402.573 M 313.951 431.362 C 301.546 434.708, 292.020 445.973, 288.900 460.989 C 288.266 464.038, 287.958 470.941, 288.206 476.519 C 288.562 484.530, 289.170 487.691, 291.211 492.150 C 294.666 499.696, 300.026 505.376, 306.839 508.711 C 311.562 511.022, 313.743 511.470, 320 511.410 C 331.717 511.298, 342 505.900, 342 499.861 C 342 495.123, 336.832 493.562, 332.154 496.887 C 330.694 497.925, 327.599 499.343, 325.277 500.037 C 321.285 501.231, 320.695 501.125, 314.534 498.091 C 309.421 495.574, 307.465 493.943, 305.462 490.525 C 302.943 486.227, 300.688 479.978, 301.400 479.267 C 301.601 479.066, 305.531 478.491, 310.133 477.990 C 323.859 476.495, 329.257 474.468, 336.216 468.193 C 340.894 463.976, 343.946 458.047, 343.978 453.116 C 344.041 443.376, 337.319 434.360, 327.911 431.566 C 321.747 429.736, 320.071 429.711, 313.951 431.362 M 312.379 443.437 C 306.865 445.837, 303.016 452.602, 301.646 462.302 C 300.957 467.176, 301.686 467.435, 312.412 466.123 C 322.360 464.906, 326.340 463.130, 329.040 458.701 C 332.076 453.723, 331.609 449.409, 327.600 445.400 C 324.754 442.554, 323.491 442.006, 319.850 442.039 C 317.457 442.061, 314.096 442.690, 312.379 443.437 M 526 443.512 C 512.714 447.920, 503.949 465.882, 505.307 485.916 C 506.629 505.415, 513.960 517.095, 528.258 522.485 C 538.895 526.494, 550.509 521.981, 557.851 510.985 C 563.400 502.676, 565.260 494.238, 564.829 479.339 C 564.517 468.578, 564.217 466.967, 561.533 461.652 C 557.736 454.134, 551.848 447.473, 546.658 444.825 C 541.387 442.136, 531.953 441.537, 526 443.512 M 572.028 449.113 C 566.708 451.237, 566.593 455.695, 571.750 459.945 L 575.500 463.036 575.500 515.268 L 575.500 567.500 573.196 572.500 C 568.169 583.411, 559.824 588.243, 550.194 585.818 C 538.856 582.964, 534.879 569.661, 542.950 561.588 C 545.683 558.854, 546.752 558.480, 552.269 558.330 C 555.696 558.236, 558.837 558.123, 559.250 558.080 C 559.663 558.036, 560 556.435, 560 554.523 C 560 547.566, 550.651 544.979, 541.569 549.423 C 535.207 552.535, 531.658 556.374, 528.214 563.865 C 522.269 576.799, 530.036 591.524, 545.243 596.142 C 560.733 600.847, 575.594 594.517, 582.961 580.076 C 586.907 572.341, 588 565.447, 588 548.290 C 588 538.755, 588.391 532, 588.943 532 C 589.461 532, 591.599 533.013, 593.693 534.250 C 602.576 539.500, 617.188 535.944, 625.995 526.390 C 636.172 515.348, 640.548 495.460, 636.023 480.808 C 629.442 459.503, 609.427 449.219, 593.640 459.033 C 588.349 462.322, 587.047 461.959, 587.015 457.184 C 586.970 450.377, 579.262 446.226, 572.028 449.113 M 189.426 450.256 C 183.629 452.603, 171.393 460.897, 170.064 463.381 C 168.390 466.509, 169.290 469, 172.093 469 C 173.278 469, 177.881 467.360, 182.321 465.355 C 186.761 463.350, 192.309 461.494, 194.649 461.230 C 198.396 460.808, 199.275 461.122, 202.011 463.857 L 205.117 466.963 204.808 486.848 L 204.500 506.733 201.039 511.801 C 196.955 517.782, 191.770 521, 186.217 521 C 182.891 521, 181.686 520.407, 179.153 517.521 C 175.348 513.187, 174.613 509.379, 175.225 497.155 C 175.587 489.938, 176.280 486.298, 177.971 482.737 C 179.215 480.118, 180.630 477.729, 181.116 477.428 C 182.585 476.520, 182.108 474, 180.467 474 C 179.623 474, 176.779 475.092, 174.145 476.426 C 170.209 478.421, 168.756 479.977, 165.974 485.176 C 162.999 490.737, 162.541 492.599, 162.182 500.606 C 161.700 511.372, 163.414 518.511, 168.004 524.847 C 172.462 531.001, 176.288 532.992, 183.667 532.996 C 191.297 533.001, 197.374 530.540, 203.363 525.019 L 207.787 520.941 210.817 523.971 C 213.076 526.229, 214.769 527, 217.473 527 C 224.742 527, 229.909 521.689, 227.906 516.275 C 227.119 514.146, 225.394 513.384, 220 512.780 L 217.500 512.500 217.420 485 C 217.337 456.410, 216.912 453.093, 213.066 451.035 C 209.911 449.347, 193.044 448.791, 189.426 450.256 M 530.450 454.407 C 526.140 456.284, 522.303 461.241, 520.525 467.229 C 518.742 473.232, 518.502 488.577, 520.075 495.914 C 522.152 505.599, 528.794 512, 536.766 512 C 540.607 512, 541.769 511.466, 545.030 508.205 C 549.988 503.247, 552.248 495.600, 552.321 483.536 C 552.413 468.410, 547.707 457.865, 539.298 454.351 C 535.356 452.704, 534.344 452.711, 530.450 454.407 M 600.001 468.072 C 596.414 469.576, 593.125 472.900, 590.672 477.500 C 588.834 480.948, 588.489 483.543, 588.177 496.310 C 587.822 510.806, 587.868 511.203, 590.368 514.979 C 593.311 519.427, 598.360 523.469, 602.061 524.340 C 606.303 525.339, 612.217 523.075, 616.158 518.944 C 621.640 513.197, 624.207 505.419, 624.292 494.294 C 624.355 486, 624.071 484.519, 621.419 479.333 C 616.689 470.086, 607.155 465.073, 600.001 468.072 M 621 547.779 C 618.223 548.614, 617 551.352, 617 556.737 C 617 561.088, 617.460 562.551, 619.455 564.545 C 620.805 565.895, 622.537 567, 623.305 567 C 626.172 567, 631.075 564.728, 632.021 562.961 C 633.597 560.017, 633.170 553.431, 631.250 551.061 C 629.448 548.837, 623.654 546.981, 621 547.779 M 622.153 551.247 C 620.360 553.040, 620.684 556.335, 622.582 555.607 C 623.452 555.273, 624.802 555, 625.582 555 C 627.628 555, 627.327 552.245, 625.153 551.082 C 623.883 550.402, 622.947 550.453, 622.153 551.247 M 624.750 558.716 C 621.842 559.157, 620.983 561.673, 623.422 562.608 C 625.341 563.345, 629 561.282, 629 559.465 C 629 558.659, 628.663 558.067, 628.250 558.150 C 627.837 558.232, 626.263 558.487, 624.750 558.716" stroke="none" fill="#000000" fill-rule="evenodd"/>
</svg>