<?xml version="1.0" standalone="no"?>
<!DOCTYPE svg PUBLIC "-//W3C//DTD SVG 20010904//EN"
 "http://www.w3.org/TR/2001/REC-SVG-20010904/DTD/svg10.dtd">
<svg version="1.0" xmlns="http://www.w3.org/2000/svg"
 width="512.000000pt" height="512.000000pt" viewBox="0 0 512.000000 512.000000"
 preserveAspectRatio="xMidYMid meet">

<g transform="translate(0.000000,512.000000) scale(0.100000,-0.100000)"
fill="#000000" stroke="none">
<path d="M415 5071 c-92 -42 -115 -96 -115 -271 l0 -130 -57 0 c-182 -1 -296
-187 -214 -348 38 -75 105 -116 209 -128 l62 -7 0 -133 0 -134 -57 0 c-188 -1
-303 -201 -206 -359 43 -68 96 -101 187 -114 l76 -11 0 -133 0 -133 -57 0
c-188 -1 -303 -201 -206 -359 43 -69 95 -101 186 -113 l77 -11 0 -134 0 -133
-57 0 c-189 -1 -303 -201 -205 -359 41 -67 98 -101 188 -114 l74 -10 0 -134 0
-133 -59 0 c-188 0 -302 -205 -201 -363 43 -68 99 -99 187 -105 l73 -5 0 -138
0 -139 -59 0 c-80 0 -152 -38 -197 -103 -109 -158 4 -367 198 -367 l58 0 0
-133 c0 -118 3 -138 22 -177 13 -24 40 -58 61 -74 l39 -31 1814 -3 c1769 -2
1815 -2 1852 17 47 24 77 56 97 103 13 33 15 140 15 863 l0 826 -25 24 c-31
32 -69 32 -100 0 l-25 -24 0 -819 c0 -623 -3 -821 -12 -830 -17 -17 -3559 -17
-3576 0 -8 8 -12 53 -12 135 l0 123 58 0 c106 0 192 60 227 159 19 55 19 96
-1 153 -31 93 -124 157 -226 158 l-58 0 0 140 0 140 58 0 c214 0 319 251 168
402 -44 45 -101 68 -168 68 l-58 0 0 133 0 133 76 12 c139 22 219 109 219 237
0 134 -101 234 -237 235 l-58 0 0 134 0 134 63 7 c116 13 190 69 223 168 50
151 -65 306 -228 307 l-58 0 0 134 0 133 63 7 c76 9 140 39 178 86 130 157 20
389 -183 390 l-58 0 0 134 0 133 63 7 c118 13 191 70 224 174 14 44 15 62 5
108 -25 121 -117 194 -244 194 l-48 0 0 123 c0 82 4 127 12 135 9 9 419 12
1784 12 1598 0 1774 -2 1788 -16 14 -14 16 -105 16 -853 l0 -838 23 -21 c31
-29 72 -28 103 3 l24 25 -2 859 -3 859 -30 44 c-18 25 -49 52 -75 66 l-44 22
-1796 0 c-1724 0 -1797 -1 -1835 -19z m148 -571 c56 -45 39 -130 -31 -149 -48
-14 -266 -14 -314 0 -26 7 -43 19 -53 39 -22 43 -18 68 14 101 l29 29 165 0
c149 0 167 -2 190 -20z m0 -750 c31 -24 42 -64 27 -99 -19 -48 -44 -55 -191
-59 -162 -5 -212 6 -234 48 -22 43 -19 68 14 101 l29 29 165 0 c149 0 167 -2
190 -20z m0 -750 c31 -24 42 -64 27 -99 -19 -48 -44 -55 -191 -59 -162 -5
-212 6 -234 48 -21 41 -19 64 11 99 l26 31 168 0 c152 0 170 -2 193 -20z m0
-750 c45 -36 44 -102 -2 -137 -17 -13 -334 -19 -366 -7 -19 8 -45 55 -45 83 0
11 12 33 26 50 l26 31 168 0 c152 0 170 -2 193 -20z m5 -752 c40 -44 37 -101
-7 -135 -11 -9 -68 -12 -186 -12 -178 0 -190 2 -213 46 -18 33 -14 59 14 92
l26 31 172 0 c166 0 173 -1 194 -22z m0 -750 c40 -44 37 -101 -7 -135 -11 -9
-68 -12 -187 -13 -156 0 -172 2 -191 20 -41 38 -42 92 -1 130 20 18 35 20 193
20 165 0 172 -1 193 -22z"/>
<path d="M1150 4383 c-51 -19 -68 -85 -30 -123 20 -20 33 -20 639 -20 l620 0
20 26 c12 15 21 33 21 40 0 29 -25 64 -53 74 -31 10 -1188 14 -1217 3z"/>
<path d="M4719 3540 c-25 -4 -63 -17 -85 -28 -24 -13 -496 -478 -1205 -1189
-906 -907 -1174 -1181 -1201 -1228 -19 -33 -92 -172 -162 -308 -137 -271 -145
-298 -106 -362 20 -33 80 -65 121 -65 20 0 526 253 612 306 23 15 567 551
1209 1192 1267 1265 1206 1200 1216 1322 6 82 -25 156 -101 236 -68 73 -123
109 -182 119 -22 4 -47 8 -55 10 -8 1 -36 -1 -61 -5z m121 -166 c45 -22 118
-109 126 -149 13 -71 -6 -100 -161 -255 l-145 -145 -130 130 -130 130 149 149
c173 172 201 186 291 140z m-335 -704 l-50 -50 -130 130 -129 130 49 50 50 50
130 -130 130 -130 -50 -50z m-375 65 l34 -36 -816 -816 -817 -817 -40 29 c-23
15 -41 30 -41 34 0 7 1633 1641 1641 1641 3 0 20 -16 39 -35z m-602 -1042
c-453 -453 -824 -823 -825 -823 -1 0 -15 19 -32 43 l-30 42 817 817 817 818
38 -37 37 -38 -822 -822z m-1120 -722 c22 -16 56 -46 75 -65 34 -34 97 -119
97 -130 0 -6 -455 -236 -466 -236 -3 0 47 104 112 230 65 127 123 230 130 230
6 0 29 -13 52 -29z"/>
<path d="M1155 3473 c-36 -9 -55 -34 -55 -73 0 -58 24 -73 130 -78 157 -8 220
15 220 77 -1 36 -22 60 -61 71 -34 10 -197 12 -234 3z"/>
<path d="M1713 3473 c-27 -5 -63 -48 -63 -74 0 -10 11 -31 24 -46 l24 -28 972
0 972 0 19 24 c38 47 20 104 -39 121 -36 10 -1858 13 -1909 3z"/>
<path d="M1126 2929 c-34 -27 -36 -79 -4 -109 22 -20 28 -20 1268 -20 1240 0
1246 0 1268 20 32 30 30 82 -4 109 -27 21 -27 21 -1264 21 -1237 0 -1237 0
-1264 -21z"/>
<path d="M1120 2400 c-27 -27 -26 -81 1 -106 20 -18 51 -19 954 -19 903 0 934
1 954 19 27 25 28 79 1 106 -20 20 -33 20 -955 20 -922 0 -935 0 -955 -20z"/>
<path d="M1155 873 c-36 -9 -55 -34 -55 -74 0 -69 1 -69 367 -69 319 0 322 0
343 22 37 40 21 97 -34 118 -27 10 -580 13 -621 3z"/>
</g>
</svg>
